<mxfile host="app.diagrams.net" agent="Mozilla/5.0 (Windows NT 10.0; Win64; x64) AppleWebKit/537.36 (KHTML, like Gecko) Chrome/130.0.0.0 Safari/537.36 Edg/130.0.0.0" version="24.8.0">
  <diagram name="Página-1" id="U30zTj80a2-iZ0Ih8tdL">
    <mxGraphModel dx="2084" dy="2247" grid="1" gridSize="10" guides="1" tooltips="1" connect="1" arrows="1" fold="1" page="1" pageScale="1" pageWidth="827" pageHeight="1169" math="0" shadow="0">
      <root>
        <mxCell id="0" />
        <mxCell id="1" parent="0" />
        <mxCell id="PEX_1BTSPyzSCmFui6DT-1" value="Sistema" style="swimlane;whiteSpace=wrap;html=1;" vertex="1" parent="1">
          <mxGeometry x="250" y="-610" width="461" height="590" as="geometry" />
        </mxCell>
        <mxCell id="PEX_1BTSPyzSCmFui6DT-20" style="edgeStyle=orthogonalEdgeStyle;rounded=0;orthogonalLoop=1;jettySize=auto;html=1;entryX=0;entryY=0.5;entryDx=0;entryDy=0;" edge="1" parent="PEX_1BTSPyzSCmFui6DT-1" source="PEX_1BTSPyzSCmFui6DT-3" target="PEX_1BTSPyzSCmFui6DT-19">
          <mxGeometry relative="1" as="geometry" />
        </mxCell>
        <mxCell id="PEX_1BTSPyzSCmFui6DT-3" value="Alugar quadra" style="ellipse;whiteSpace=wrap;html=1;fillColor=#f8cecc;strokeColor=#b85450;" vertex="1" parent="PEX_1BTSPyzSCmFui6DT-1">
          <mxGeometry x="31" y="60" width="120" height="80" as="geometry" />
        </mxCell>
        <mxCell id="PEX_1BTSPyzSCmFui6DT-37" style="edgeStyle=orthogonalEdgeStyle;rounded=0;orthogonalLoop=1;jettySize=auto;html=1;entryX=0;entryY=0.5;entryDx=0;entryDy=0;" edge="1" parent="PEX_1BTSPyzSCmFui6DT-1" source="PEX_1BTSPyzSCmFui6DT-4" target="PEX_1BTSPyzSCmFui6DT-36">
          <mxGeometry relative="1" as="geometry" />
        </mxCell>
        <mxCell id="PEX_1BTSPyzSCmFui6DT-4" value="Cancelar reserva" style="ellipse;whiteSpace=wrap;html=1;fillColor=#f8cecc;strokeColor=#b85450;" vertex="1" parent="PEX_1BTSPyzSCmFui6DT-1">
          <mxGeometry x="21" y="360" width="120" height="80" as="geometry" />
        </mxCell>
        <mxCell id="PEX_1BTSPyzSCmFui6DT-25" style="edgeStyle=orthogonalEdgeStyle;rounded=0;orthogonalLoop=1;jettySize=auto;html=1;entryX=0;entryY=0.75;entryDx=0;entryDy=0;" edge="1" parent="PEX_1BTSPyzSCmFui6DT-1" source="PEX_1BTSPyzSCmFui6DT-6" target="PEX_1BTSPyzSCmFui6DT-14">
          <mxGeometry relative="1" as="geometry">
            <mxPoint x="226" y="270" as="targetPoint" />
            <Array as="points">
              <mxPoint x="226" y="230" />
              <mxPoint x="291" y="230" />
              <mxPoint x="291" y="278" />
            </Array>
          </mxGeometry>
        </mxCell>
        <mxCell id="PEX_1BTSPyzSCmFui6DT-26" value="Disponivel" style="edgeLabel;html=1;align=center;verticalAlign=middle;resizable=0;points=[];" vertex="1" connectable="0" parent="PEX_1BTSPyzSCmFui6DT-25">
          <mxGeometry x="-0.1643" relative="1" as="geometry">
            <mxPoint as="offset" />
          </mxGeometry>
        </mxCell>
        <mxCell id="PEX_1BTSPyzSCmFui6DT-6" value="Conferir disponibilidade" style="html=1;whiteSpace=wrap;aspect=fixed;shape=isoRectangle;fillColor=#ffe6cc;strokeColor=#d79b00;" vertex="1" parent="PEX_1BTSPyzSCmFui6DT-1">
          <mxGeometry x="151" y="120" width="150" height="90" as="geometry" />
        </mxCell>
        <mxCell id="PEX_1BTSPyzSCmFui6DT-14" value="Salvar na agenda" style="rounded=1;whiteSpace=wrap;html=1;absoluteArcSize=1;arcSize=14;strokeWidth=2;fillColor=#d5e8d4;strokeColor=#82b366;" vertex="1" parent="PEX_1BTSPyzSCmFui6DT-1">
          <mxGeometry x="311" y="240" width="130" height="50" as="geometry" />
        </mxCell>
        <mxCell id="PEX_1BTSPyzSCmFui6DT-19" value="conferir na agenda" style="rounded=1;whiteSpace=wrap;html=1;absoluteArcSize=1;arcSize=14;strokeWidth=2;fillColor=#d5e8d4;strokeColor=#82b366;" vertex="1" parent="PEX_1BTSPyzSCmFui6DT-1">
          <mxGeometry x="306" y="70" width="140" height="30" as="geometry" />
        </mxCell>
        <mxCell id="PEX_1BTSPyzSCmFui6DT-23" style="edgeStyle=orthogonalEdgeStyle;rounded=0;orthogonalLoop=1;jettySize=auto;html=1;entryX=1.011;entryY=0.489;entryDx=0;entryDy=0;entryPerimeter=0;" edge="1" parent="PEX_1BTSPyzSCmFui6DT-1" source="PEX_1BTSPyzSCmFui6DT-19" target="PEX_1BTSPyzSCmFui6DT-6">
          <mxGeometry relative="1" as="geometry">
            <Array as="points">
              <mxPoint x="331" y="120" />
              <mxPoint x="303" y="120" />
            </Array>
          </mxGeometry>
        </mxCell>
        <mxCell id="PEX_1BTSPyzSCmFui6DT-28" value="Disponibilidade" style="edgeLabel;html=1;align=center;verticalAlign=middle;resizable=0;points=[];" vertex="1" connectable="0" parent="PEX_1BTSPyzSCmFui6DT-23">
          <mxGeometry x="0.1165" y="1" relative="1" as="geometry">
            <mxPoint as="offset" />
          </mxGeometry>
        </mxCell>
        <mxCell id="PEX_1BTSPyzSCmFui6DT-36" value="Excluir reserva na agenda" style="rounded=1;whiteSpace=wrap;html=1;absoluteArcSize=1;arcSize=14;strokeWidth=2;fillColor=#d5e8d4;strokeColor=#82b366;" vertex="1" parent="PEX_1BTSPyzSCmFui6DT-1">
          <mxGeometry x="261" y="360" width="100" height="30" as="geometry" />
        </mxCell>
        <mxCell id="PEX_1BTSPyzSCmFui6DT-40" value="Mensagem de reserva concluída" style="strokeWidth=2;html=1;shape=mxgraph.flowchart.start_1;whiteSpace=wrap;strokeColor=#6c8ebf;fillColor=#dae8fc;" vertex="1" parent="PEX_1BTSPyzSCmFui6DT-1">
          <mxGeometry x="166" y="290" width="120" height="70" as="geometry" />
        </mxCell>
        <mxCell id="PEX_1BTSPyzSCmFui6DT-41" style="edgeStyle=orthogonalEdgeStyle;rounded=0;orthogonalLoop=1;jettySize=auto;html=1;entryX=0.5;entryY=0;entryDx=0;entryDy=0;entryPerimeter=0;" edge="1" parent="PEX_1BTSPyzSCmFui6DT-1" source="PEX_1BTSPyzSCmFui6DT-6" target="PEX_1BTSPyzSCmFui6DT-40">
          <mxGeometry relative="1" as="geometry" />
        </mxCell>
        <mxCell id="PEX_1BTSPyzSCmFui6DT-42" value="Disponivel" style="edgeLabel;html=1;align=center;verticalAlign=middle;resizable=0;points=[];" vertex="1" connectable="0" parent="PEX_1BTSPyzSCmFui6DT-41">
          <mxGeometry x="0.0611" y="-1" relative="1" as="geometry">
            <mxPoint as="offset" />
          </mxGeometry>
        </mxCell>
        <mxCell id="PEX_1BTSPyzSCmFui6DT-57" style="edgeStyle=orthogonalEdgeStyle;rounded=0;orthogonalLoop=1;jettySize=auto;html=1;entryX=0;entryY=0.75;entryDx=0;entryDy=0;" edge="1" parent="PEX_1BTSPyzSCmFui6DT-1" source="PEX_1BTSPyzSCmFui6DT-45" target="PEX_1BTSPyzSCmFui6DT-56">
          <mxGeometry relative="1" as="geometry" />
        </mxCell>
        <mxCell id="PEX_1BTSPyzSCmFui6DT-45" value="Conferir datas já alugadas" style="strokeWidth=2;html=1;shape=mxgraph.flowchart.start_1;whiteSpace=wrap;fillColor=#f8cecc;strokeColor=#b85450;" vertex="1" parent="PEX_1BTSPyzSCmFui6DT-1">
          <mxGeometry x="130" y="460" width="149" height="60" as="geometry" />
        </mxCell>
        <mxCell id="PEX_1BTSPyzSCmFui6DT-50" value="Exibir datas já alugadas" style="strokeWidth=2;html=1;shape=mxgraph.flowchart.start_1;whiteSpace=wrap;fillColor=#dae8fc;strokeColor=#6c8ebf;" vertex="1" parent="PEX_1BTSPyzSCmFui6DT-1">
          <mxGeometry x="21" y="520" width="130" height="60" as="geometry" />
        </mxCell>
        <mxCell id="PEX_1BTSPyzSCmFui6DT-56" value="conferir na agenda" style="rounded=1;whiteSpace=wrap;html=1;absoluteArcSize=1;arcSize=14;strokeWidth=2;fillColor=#d5e8d4;strokeColor=#82b366;" vertex="1" parent="PEX_1BTSPyzSCmFui6DT-1">
          <mxGeometry x="321" y="460" width="140" height="30" as="geometry" />
        </mxCell>
        <mxCell id="PEX_1BTSPyzSCmFui6DT-62" value="Exibir mensagem de data excluída com sucesso" style="strokeWidth=2;html=1;shape=mxgraph.flowchart.start_1;whiteSpace=wrap;fillColor=#dae8fc;strokeColor=#6c8ebf;" vertex="1" parent="PEX_1BTSPyzSCmFui6DT-1">
          <mxGeometry x="311" y="400" width="130" height="60" as="geometry" />
        </mxCell>
        <mxCell id="PEX_1BTSPyzSCmFui6DT-65" value="" style="endArrow=classic;html=1;rounded=0;entryX=0.046;entryY=0.298;entryDx=0;entryDy=0;entryPerimeter=0;exitX=0.5;exitY=1;exitDx=0;exitDy=0;" edge="1" parent="PEX_1BTSPyzSCmFui6DT-1" source="PEX_1BTSPyzSCmFui6DT-36" target="PEX_1BTSPyzSCmFui6DT-62">
          <mxGeometry width="50" height="50" relative="1" as="geometry">
            <mxPoint x="300" y="460" as="sourcePoint" />
            <mxPoint x="290" y="390" as="targetPoint" />
          </mxGeometry>
        </mxCell>
        <mxCell id="PEX_1BTSPyzSCmFui6DT-33" style="edgeStyle=orthogonalEdgeStyle;rounded=0;orthogonalLoop=1;jettySize=auto;html=1;entryX=0;entryY=0.5;entryDx=0;entryDy=0;" edge="1" parent="1" source="PEX_1BTSPyzSCmFui6DT-2" target="PEX_1BTSPyzSCmFui6DT-3">
          <mxGeometry relative="1" as="geometry" />
        </mxCell>
        <mxCell id="PEX_1BTSPyzSCmFui6DT-2" value="usuário" style="shape=umlActor;verticalLabelPosition=bottom;verticalAlign=top;html=1;outlineConnect=0;" vertex="1" parent="1">
          <mxGeometry x="130" y="-370" width="30" height="60" as="geometry" />
        </mxCell>
        <mxCell id="PEX_1BTSPyzSCmFui6DT-10" value="Agenda" style="strokeWidth=2;html=1;shape=mxgraph.flowchart.start_2;whiteSpace=wrap;fillColor=#e1d5e7;strokeColor=#9673a6;" vertex="1" parent="1">
          <mxGeometry x="720" y="-470" width="100" height="100" as="geometry" />
        </mxCell>
        <mxCell id="PEX_1BTSPyzSCmFui6DT-21" style="edgeStyle=orthogonalEdgeStyle;rounded=0;orthogonalLoop=1;jettySize=auto;html=1;" edge="1" parent="1" source="PEX_1BTSPyzSCmFui6DT-19" target="PEX_1BTSPyzSCmFui6DT-10">
          <mxGeometry relative="1" as="geometry" />
        </mxCell>
        <mxCell id="PEX_1BTSPyzSCmFui6DT-22" style="edgeStyle=orthogonalEdgeStyle;rounded=0;orthogonalLoop=1;jettySize=auto;html=1;entryX=0.885;entryY=1.025;entryDx=0;entryDy=0;entryPerimeter=0;" edge="1" parent="1" source="PEX_1BTSPyzSCmFui6DT-10" target="PEX_1BTSPyzSCmFui6DT-19">
          <mxGeometry relative="1" as="geometry" />
        </mxCell>
        <mxCell id="PEX_1BTSPyzSCmFui6DT-27" style="edgeStyle=orthogonalEdgeStyle;rounded=0;orthogonalLoop=1;jettySize=auto;html=1;entryX=0.5;entryY=1;entryDx=0;entryDy=0;entryPerimeter=0;" edge="1" parent="1" source="PEX_1BTSPyzSCmFui6DT-14" target="PEX_1BTSPyzSCmFui6DT-10">
          <mxGeometry relative="1" as="geometry" />
        </mxCell>
        <mxCell id="PEX_1BTSPyzSCmFui6DT-34" style="edgeStyle=orthogonalEdgeStyle;rounded=0;orthogonalLoop=1;jettySize=auto;html=1;" edge="1" parent="1" source="PEX_1BTSPyzSCmFui6DT-30" target="PEX_1BTSPyzSCmFui6DT-2">
          <mxGeometry relative="1" as="geometry">
            <Array as="points">
              <mxPoint x="235" y="-360" />
              <mxPoint x="235" y="-320" />
            </Array>
          </mxGeometry>
        </mxCell>
        <mxCell id="PEX_1BTSPyzSCmFui6DT-30" value="Exibir mensagem de horário já reservado" style="strokeWidth=2;html=1;shape=mxgraph.flowchart.start_1;whiteSpace=wrap;fillColor=#dae8fc;strokeColor=#6c8ebf;" vertex="1" parent="1">
          <mxGeometry x="310" y="-390" width="130" height="60" as="geometry" />
        </mxCell>
        <mxCell id="PEX_1BTSPyzSCmFui6DT-31" style="edgeStyle=orthogonalEdgeStyle;rounded=0;orthogonalLoop=1;jettySize=auto;html=1;entryX=0.462;entryY=0;entryDx=0;entryDy=0;entryPerimeter=0;" edge="1" parent="1" source="PEX_1BTSPyzSCmFui6DT-6" target="PEX_1BTSPyzSCmFui6DT-30">
          <mxGeometry relative="1" as="geometry">
            <mxPoint x="370" y="-410" as="targetPoint" />
            <Array as="points">
              <mxPoint x="370" y="-450" />
            </Array>
          </mxGeometry>
        </mxCell>
        <mxCell id="PEX_1BTSPyzSCmFui6DT-32" value="Não disponivel&amp;nbsp;" style="edgeLabel;html=1;align=center;verticalAlign=middle;resizable=0;points=[];" vertex="1" connectable="0" parent="PEX_1BTSPyzSCmFui6DT-31">
          <mxGeometry x="-0.0013" relative="1" as="geometry">
            <mxPoint as="offset" />
          </mxGeometry>
        </mxCell>
        <mxCell id="PEX_1BTSPyzSCmFui6DT-38" style="edgeStyle=orthogonalEdgeStyle;rounded=0;orthogonalLoop=1;jettySize=auto;html=1;entryX=0.734;entryY=0.969;entryDx=0;entryDy=0;entryPerimeter=0;" edge="1" parent="1" source="PEX_1BTSPyzSCmFui6DT-36" target="PEX_1BTSPyzSCmFui6DT-10">
          <mxGeometry relative="1" as="geometry" />
        </mxCell>
        <mxCell id="PEX_1BTSPyzSCmFui6DT-43" style="edgeStyle=orthogonalEdgeStyle;rounded=0;orthogonalLoop=1;jettySize=auto;html=1;entryX=0;entryY=1;entryDx=0;entryDy=0;entryPerimeter=0;" edge="1" parent="1" source="PEX_1BTSPyzSCmFui6DT-40" target="PEX_1BTSPyzSCmFui6DT-2">
          <mxGeometry relative="1" as="geometry">
            <mxPoint x="140" y="-280" as="targetPoint" />
          </mxGeometry>
        </mxCell>
        <mxCell id="PEX_1BTSPyzSCmFui6DT-44" style="edgeStyle=orthogonalEdgeStyle;rounded=0;orthogonalLoop=1;jettySize=auto;html=1;entryX=-0.004;entryY=0.607;entryDx=0;entryDy=0;entryPerimeter=0;" edge="1" parent="1" source="PEX_1BTSPyzSCmFui6DT-2" target="PEX_1BTSPyzSCmFui6DT-4">
          <mxGeometry relative="1" as="geometry">
            <Array as="points">
              <mxPoint x="145" y="-300" />
              <mxPoint x="216" y="-300" />
              <mxPoint x="216" y="-201" />
            </Array>
          </mxGeometry>
        </mxCell>
        <mxCell id="PEX_1BTSPyzSCmFui6DT-47" style="edgeStyle=orthogonalEdgeStyle;rounded=0;orthogonalLoop=1;jettySize=auto;html=1;entryX=0;entryY=0.5;entryDx=0;entryDy=0;entryPerimeter=0;" edge="1" parent="1" source="PEX_1BTSPyzSCmFui6DT-2" target="PEX_1BTSPyzSCmFui6DT-45">
          <mxGeometry relative="1" as="geometry">
            <Array as="points">
              <mxPoint x="145" y="-120" />
            </Array>
          </mxGeometry>
        </mxCell>
        <mxCell id="PEX_1BTSPyzSCmFui6DT-53" style="edgeStyle=orthogonalEdgeStyle;rounded=0;orthogonalLoop=1;jettySize=auto;html=1;" edge="1" parent="1" source="PEX_1BTSPyzSCmFui6DT-50" target="PEX_1BTSPyzSCmFui6DT-2">
          <mxGeometry relative="1" as="geometry" />
        </mxCell>
        <mxCell id="PEX_1BTSPyzSCmFui6DT-58" style="edgeStyle=orthogonalEdgeStyle;rounded=0;orthogonalLoop=1;jettySize=auto;html=1;entryX=0.601;entryY=1.009;entryDx=0;entryDy=0;entryPerimeter=0;" edge="1" parent="1" source="PEX_1BTSPyzSCmFui6DT-56" target="PEX_1BTSPyzSCmFui6DT-10">
          <mxGeometry relative="1" as="geometry">
            <Array as="points">
              <mxPoint x="780" y="-130" />
            </Array>
          </mxGeometry>
        </mxCell>
        <mxCell id="PEX_1BTSPyzSCmFui6DT-61" style="edgeStyle=orthogonalEdgeStyle;rounded=0;orthogonalLoop=1;jettySize=auto;html=1;entryX=1;entryY=0.5;entryDx=0;entryDy=0;entryPerimeter=0;" edge="1" parent="1" source="PEX_1BTSPyzSCmFui6DT-10" target="PEX_1BTSPyzSCmFui6DT-50">
          <mxGeometry relative="1" as="geometry">
            <Array as="points">
              <mxPoint x="770" y="-60" />
            </Array>
          </mxGeometry>
        </mxCell>
        <mxCell id="PEX_1BTSPyzSCmFui6DT-66" style="edgeStyle=orthogonalEdgeStyle;rounded=0;orthogonalLoop=1;jettySize=auto;html=1;entryX=1;entryY=1;entryDx=0;entryDy=0;entryPerimeter=0;" edge="1" parent="1" source="PEX_1BTSPyzSCmFui6DT-62" target="PEX_1BTSPyzSCmFui6DT-2">
          <mxGeometry relative="1" as="geometry" />
        </mxCell>
      </root>
    </mxGraphModel>
  </diagram>
</mxfile>
